# xmcd CD database file
#
# Track frame offsets:
#	150
#	11138
#	36943
#	70023
#	87052
#	98095
#	131803
#	165202
#	179020
#
# Disc length: 2538 seconds
#
# Revision: 0
# Processed by: cddbd v1.5PL3 Copyright (c) Steve Scherf et al.
# Submitted via: CDex 1.51
#
DISCID=6d09e809
DTITLE=Louis Armstrong - I Love Jazz!
DYEAR=1900
DGENRE=Jazz
TTITLE0=I Love Jazz
TTITLE1=Twelfth Street Rag
TTITLE2=Basin Street Blues
TTITLE3=Skokiaan (South African Song)
TTITLE4=Frog -I- More Rag
TTITLE5=Otchi-Tchor-Ni-Ya
TTITLE6=Tenderly - You'll Never Walk Alone
TTITLE7=Pretty Little Missy
TTITLE8=I Love Jazz
EXTD=
EXTT0=
EXTT1=
EXTT2=
EXTT3=
EXTT4=
EXTT5=
EXTT6=
EXTT7=
EXTT8=
PLAYORDER=
